<mxfile host="app.diagrams.net" modified="2023-09-20T15:42:37.623Z" agent="Mozilla/5.0 (Macintosh; Intel Mac OS X 10_15_7) AppleWebKit/537.36 (KHTML, like Gecko) Chrome/116.0.0.0 Safari/537.36" etag="0vigOt3d1hZiGQ2BIphd" version="21.7.5" type="github">
  <diagram name="Page-1" id="AIgIt1zfqmCC5YmACqkd">
    <mxGraphModel dx="1375" dy="1886" grid="1" gridSize="10" guides="1" tooltips="1" connect="1" arrows="1" fold="1" page="1" pageScale="1" pageWidth="850" pageHeight="1100" math="0" shadow="0">
      <root>
        <mxCell id="0" />
        <mxCell id="1" parent="0" />
        <mxCell id="mqLugZ6fHD6W08TqDkBv-2" value="Admin" style="shape=umlActor;html=1;verticalLabelPosition=bottom;verticalAlign=top;align=center;" vertex="1" parent="1">
          <mxGeometry x="50" y="40" width="30" height="60" as="geometry" />
        </mxCell>
        <mxCell id="mqLugZ6fHD6W08TqDkBv-3" value="Laundry Middle Platform" style="shape=rect;html=1;verticalAlign=top;fontStyle=1;whiteSpace=wrap;align=center;" vertex="1" parent="1">
          <mxGeometry x="120" y="-255" width="1040" height="1530" as="geometry" />
        </mxCell>
        <mxCell id="mqLugZ6fHD6W08TqDkBv-4" value="Login" style="ellipse;whiteSpace=wrap;html=1;" vertex="1" parent="1">
          <mxGeometry x="425" y="110" width="100" height="60" as="geometry" />
        </mxCell>
        <mxCell id="mqLugZ6fHD6W08TqDkBv-6" value="Customer" style="shape=umlActor;html=1;verticalLabelPosition=bottom;verticalAlign=top;align=center;" vertex="1" parent="1">
          <mxGeometry x="1220" y="200" width="30" height="60" as="geometry" />
        </mxCell>
        <mxCell id="mqLugZ6fHD6W08TqDkBv-7" value="Staff" style="shape=umlActor;html=1;verticalLabelPosition=bottom;verticalAlign=top;align=center;" vertex="1" parent="1">
          <mxGeometry x="1220" y="10" width="30" height="60" as="geometry" />
        </mxCell>
        <mxCell id="mqLugZ6fHD6W08TqDkBv-11" value="" style="edgeStyle=none;html=1;endArrow=none;verticalAlign=bottom;rounded=0;exitX=0.5;exitY=0.5;exitDx=0;exitDy=0;exitPerimeter=0;entryX=0;entryY=0.5;entryDx=0;entryDy=0;" edge="1" parent="1" source="mqLugZ6fHD6W08TqDkBv-2" target="mqLugZ6fHD6W08TqDkBv-4">
          <mxGeometry width="160" relative="1" as="geometry">
            <mxPoint x="340" y="80" as="sourcePoint" />
            <mxPoint x="500" y="80" as="targetPoint" />
          </mxGeometry>
        </mxCell>
        <mxCell id="mqLugZ6fHD6W08TqDkBv-13" value="" style="edgeStyle=none;html=1;endArrow=none;verticalAlign=bottom;rounded=0;entryX=0.5;entryY=0.5;entryDx=0;entryDy=0;entryPerimeter=0;exitX=1;exitY=0.5;exitDx=0;exitDy=0;" edge="1" parent="1" source="mqLugZ6fHD6W08TqDkBv-4" target="mqLugZ6fHD6W08TqDkBv-7">
          <mxGeometry width="160" relative="1" as="geometry">
            <mxPoint x="340" y="80" as="sourcePoint" />
            <mxPoint x="500" y="80" as="targetPoint" />
          </mxGeometry>
        </mxCell>
        <mxCell id="mqLugZ6fHD6W08TqDkBv-14" value="" style="edgeStyle=none;html=1;endArrow=none;verticalAlign=bottom;rounded=0;entryX=0.5;entryY=0.5;entryDx=0;entryDy=0;entryPerimeter=0;exitX=1;exitY=0.5;exitDx=0;exitDy=0;" edge="1" parent="1" source="mqLugZ6fHD6W08TqDkBv-4" target="mqLugZ6fHD6W08TqDkBv-6">
          <mxGeometry width="160" relative="1" as="geometry">
            <mxPoint x="340" y="80" as="sourcePoint" />
            <mxPoint x="500" y="80" as="targetPoint" />
          </mxGeometry>
        </mxCell>
        <mxCell id="mqLugZ6fHD6W08TqDkBv-15" value="Logout" style="ellipse;whiteSpace=wrap;html=1;" vertex="1" parent="1">
          <mxGeometry x="432.5" y="250" width="95" height="60" as="geometry" />
        </mxCell>
        <mxCell id="mqLugZ6fHD6W08TqDkBv-16" value="" style="edgeStyle=none;html=1;endArrow=none;verticalAlign=bottom;rounded=0;exitX=0.5;exitY=0.5;exitDx=0;exitDy=0;exitPerimeter=0;entryX=0;entryY=0.5;entryDx=0;entryDy=0;" edge="1" parent="1" source="mqLugZ6fHD6W08TqDkBv-2" target="mqLugZ6fHD6W08TqDkBv-15">
          <mxGeometry width="160" relative="1" as="geometry">
            <mxPoint x="340" y="80" as="sourcePoint" />
            <mxPoint x="500" y="80" as="targetPoint" />
          </mxGeometry>
        </mxCell>
        <mxCell id="mqLugZ6fHD6W08TqDkBv-17" value="" style="edgeStyle=none;html=1;endArrow=none;verticalAlign=bottom;rounded=0;exitX=1;exitY=0.5;exitDx=0;exitDy=0;entryX=0.5;entryY=0.5;entryDx=0;entryDy=0;entryPerimeter=0;" edge="1" parent="1" source="mqLugZ6fHD6W08TqDkBv-15" target="mqLugZ6fHD6W08TqDkBv-7">
          <mxGeometry width="160" relative="1" as="geometry">
            <mxPoint x="340" y="80" as="sourcePoint" />
            <mxPoint x="500" y="80" as="targetPoint" />
          </mxGeometry>
        </mxCell>
        <mxCell id="mqLugZ6fHD6W08TqDkBv-18" value="" style="edgeStyle=none;html=1;endArrow=none;verticalAlign=bottom;rounded=0;exitX=1;exitY=0.5;exitDx=0;exitDy=0;entryX=0.5;entryY=0.5;entryDx=0;entryDy=0;entryPerimeter=0;" edge="1" parent="1" source="mqLugZ6fHD6W08TqDkBv-15" target="mqLugZ6fHD6W08TqDkBv-6">
          <mxGeometry width="160" relative="1" as="geometry">
            <mxPoint x="340" y="80" as="sourcePoint" />
            <mxPoint x="500" y="80" as="targetPoint" />
          </mxGeometry>
        </mxCell>
        <mxCell id="mqLugZ6fHD6W08TqDkBv-19" value="Sign up" style="ellipse;whiteSpace=wrap;html=1;" vertex="1" parent="1">
          <mxGeometry x="968.12" y="262.5" width="95" height="50" as="geometry" />
        </mxCell>
        <mxCell id="mqLugZ6fHD6W08TqDkBv-20" value="" style="edgeStyle=none;html=1;endArrow=none;verticalAlign=bottom;rounded=0;exitX=1;exitY=0.5;exitDx=0;exitDy=0;entryX=0.5;entryY=0.5;entryDx=0;entryDy=0;entryPerimeter=0;" edge="1" parent="1" source="mqLugZ6fHD6W08TqDkBv-19" target="mqLugZ6fHD6W08TqDkBv-6">
          <mxGeometry width="160" relative="1" as="geometry">
            <mxPoint x="870" y="335" as="sourcePoint" />
            <mxPoint x="695" y="90" as="targetPoint" />
          </mxGeometry>
        </mxCell>
        <mxCell id="mqLugZ6fHD6W08TqDkBv-21" value="View dashboard" style="ellipse;whiteSpace=wrap;html=1;" vertex="1" parent="1">
          <mxGeometry x="150" y="-10" width="110" height="60" as="geometry" />
        </mxCell>
        <mxCell id="mqLugZ6fHD6W08TqDkBv-22" value="" style="edgeStyle=none;html=1;endArrow=none;verticalAlign=bottom;rounded=0;exitX=0.5;exitY=0.5;exitDx=0;exitDy=0;exitPerimeter=0;entryX=0;entryY=0.5;entryDx=0;entryDy=0;" edge="1" parent="1" source="mqLugZ6fHD6W08TqDkBv-2" target="mqLugZ6fHD6W08TqDkBv-21">
          <mxGeometry width="160" relative="1" as="geometry">
            <mxPoint x="340" y="160" as="sourcePoint" />
            <mxPoint x="500" y="160" as="targetPoint" />
          </mxGeometry>
        </mxCell>
        <mxCell id="mqLugZ6fHD6W08TqDkBv-23" value="Manage store" style="ellipse;whiteSpace=wrap;html=1;" vertex="1" parent="1">
          <mxGeometry x="140" y="-170" width="120" height="70" as="geometry" />
        </mxCell>
        <mxCell id="mqLugZ6fHD6W08TqDkBv-24" value="" style="edgeStyle=none;html=1;endArrow=none;verticalAlign=bottom;rounded=0;exitX=0.5;exitY=0.5;exitDx=0;exitDy=0;exitPerimeter=0;entryX=0;entryY=0.5;entryDx=0;entryDy=0;" edge="1" parent="1" source="mqLugZ6fHD6W08TqDkBv-2" target="mqLugZ6fHD6W08TqDkBv-23">
          <mxGeometry width="160" relative="1" as="geometry">
            <mxPoint x="340" y="160" as="sourcePoint" />
            <mxPoint x="500" y="160" as="targetPoint" />
          </mxGeometry>
        </mxCell>
        <mxCell id="mqLugZ6fHD6W08TqDkBv-25" value="Create store" style="ellipse;whiteSpace=wrap;html=1;" vertex="1" parent="1">
          <mxGeometry x="342.5" y="-190" width="90" height="40" as="geometry" />
        </mxCell>
        <mxCell id="mqLugZ6fHD6W08TqDkBv-27" value="&amp;lt;&amp;lt;include&amp;gt;&amp;gt;" style="edgeStyle=none;html=1;endArrow=open;verticalAlign=bottom;dashed=1;labelBackgroundColor=none;rounded=0;entryX=0;entryY=0.5;entryDx=0;entryDy=0;exitX=1;exitY=0.5;exitDx=0;exitDy=0;" edge="1" parent="1" source="mqLugZ6fHD6W08TqDkBv-23" target="mqLugZ6fHD6W08TqDkBv-25">
          <mxGeometry width="160" relative="1" as="geometry">
            <mxPoint x="350" y="-10" as="sourcePoint" />
            <mxPoint x="510" y="-10" as="targetPoint" />
          </mxGeometry>
        </mxCell>
        <mxCell id="mqLugZ6fHD6W08TqDkBv-28" value="Update store" style="ellipse;whiteSpace=wrap;html=1;" vertex="1" parent="1">
          <mxGeometry x="347.5" y="-140" width="95" height="40" as="geometry" />
        </mxCell>
        <mxCell id="mqLugZ6fHD6W08TqDkBv-29" value="&amp;lt;&amp;lt;include&amp;gt;&amp;gt;" style="edgeStyle=none;html=1;endArrow=open;verticalAlign=bottom;dashed=1;labelBackgroundColor=none;rounded=0;exitX=1;exitY=0.5;exitDx=0;exitDy=0;entryX=0;entryY=0.5;entryDx=0;entryDy=0;" edge="1" parent="1" source="mqLugZ6fHD6W08TqDkBv-23" target="mqLugZ6fHD6W08TqDkBv-28">
          <mxGeometry width="160" relative="1" as="geometry">
            <mxPoint x="340" y="160" as="sourcePoint" />
            <mxPoint x="500" y="160" as="targetPoint" />
          </mxGeometry>
        </mxCell>
        <mxCell id="mqLugZ6fHD6W08TqDkBv-33" value="Manage Staff" style="ellipse;whiteSpace=wrap;html=1;" vertex="1" parent="1">
          <mxGeometry x="180" y="390" width="120" height="60" as="geometry" />
        </mxCell>
        <mxCell id="mqLugZ6fHD6W08TqDkBv-34" value="" style="edgeStyle=none;html=1;endArrow=none;verticalAlign=bottom;rounded=0;exitX=0.5;exitY=0.5;exitDx=0;exitDy=0;exitPerimeter=0;entryX=0;entryY=0.5;entryDx=0;entryDy=0;" edge="1" parent="1" source="mqLugZ6fHD6W08TqDkBv-2" target="mqLugZ6fHD6W08TqDkBv-33">
          <mxGeometry width="160" relative="1" as="geometry">
            <mxPoint x="340" y="160" as="sourcePoint" />
            <mxPoint x="500" y="160" as="targetPoint" />
          </mxGeometry>
        </mxCell>
        <mxCell id="mqLugZ6fHD6W08TqDkBv-35" value="Create Staff" style="ellipse;whiteSpace=wrap;html=1;" vertex="1" parent="1">
          <mxGeometry x="332.5" y="330" width="100" height="50" as="geometry" />
        </mxCell>
        <mxCell id="mqLugZ6fHD6W08TqDkBv-36" value="Update Staff" style="ellipse;whiteSpace=wrap;html=1;" vertex="1" parent="1">
          <mxGeometry x="345" y="410" width="110" height="60" as="geometry" />
        </mxCell>
        <mxCell id="mqLugZ6fHD6W08TqDkBv-38" value="&amp;lt;&amp;lt;include&amp;gt;&amp;gt;" style="edgeStyle=none;html=1;endArrow=open;verticalAlign=bottom;dashed=1;labelBackgroundColor=none;rounded=0;exitX=1;exitY=0.5;exitDx=0;exitDy=0;entryX=0;entryY=1;entryDx=0;entryDy=0;" edge="1" parent="1" source="mqLugZ6fHD6W08TqDkBv-33" target="mqLugZ6fHD6W08TqDkBv-35">
          <mxGeometry width="160" relative="1" as="geometry">
            <mxPoint x="340" y="160" as="sourcePoint" />
            <mxPoint x="500" y="160" as="targetPoint" />
          </mxGeometry>
        </mxCell>
        <mxCell id="mqLugZ6fHD6W08TqDkBv-39" value="&amp;lt;&amp;lt;include&amp;gt;&amp;gt;" style="edgeStyle=none;html=1;endArrow=open;verticalAlign=bottom;dashed=1;labelBackgroundColor=none;rounded=0;exitX=1;exitY=0.5;exitDx=0;exitDy=0;entryX=0;entryY=0.5;entryDx=0;entryDy=0;" edge="1" parent="1" source="mqLugZ6fHD6W08TqDkBv-33" target="mqLugZ6fHD6W08TqDkBv-36">
          <mxGeometry width="160" relative="1" as="geometry">
            <mxPoint x="340" y="160" as="sourcePoint" />
            <mxPoint x="500" y="160" as="targetPoint" />
          </mxGeometry>
        </mxCell>
        <mxCell id="mqLugZ6fHD6W08TqDkBv-40" value="View Staff" style="ellipse;whiteSpace=wrap;html=1;" vertex="1" parent="1">
          <mxGeometry x="345" y="490" width="100" height="40" as="geometry" />
        </mxCell>
        <mxCell id="mqLugZ6fHD6W08TqDkBv-41" value="&amp;lt;&amp;lt;include&amp;gt;&amp;gt;" style="edgeStyle=none;html=1;endArrow=open;verticalAlign=bottom;dashed=1;labelBackgroundColor=none;rounded=0;entryX=0;entryY=0.5;entryDx=0;entryDy=0;" edge="1" parent="1" target="mqLugZ6fHD6W08TqDkBv-40">
          <mxGeometry width="160" relative="1" as="geometry">
            <mxPoint x="300" y="420" as="sourcePoint" />
            <mxPoint x="500" y="170" as="targetPoint" />
          </mxGeometry>
        </mxCell>
        <mxCell id="mqLugZ6fHD6W08TqDkBv-42" value="Manage store" style="ellipse;whiteSpace=wrap;html=1;" vertex="1" parent="1">
          <mxGeometry x="160" y="580" width="140" height="70" as="geometry" />
        </mxCell>
        <mxCell id="mqLugZ6fHD6W08TqDkBv-43" value="Update store" style="ellipse;whiteSpace=wrap;html=1;" vertex="1" parent="1">
          <mxGeometry x="355" y="560" width="115" height="40" as="geometry" />
        </mxCell>
        <mxCell id="mqLugZ6fHD6W08TqDkBv-44" value="View store" style="ellipse;whiteSpace=wrap;html=1;" vertex="1" parent="1">
          <mxGeometry x="355" y="630" width="125" height="40" as="geometry" />
        </mxCell>
        <mxCell id="mqLugZ6fHD6W08TqDkBv-45" value="&amp;lt;&amp;lt;include&amp;gt;&amp;gt;" style="edgeStyle=none;html=1;endArrow=open;verticalAlign=bottom;dashed=1;labelBackgroundColor=none;rounded=0;exitX=1;exitY=0.5;exitDx=0;exitDy=0;entryX=0;entryY=0.5;entryDx=0;entryDy=0;" edge="1" parent="1" source="mqLugZ6fHD6W08TqDkBv-42" target="mqLugZ6fHD6W08TqDkBv-43">
          <mxGeometry width="160" relative="1" as="geometry">
            <mxPoint x="340" y="520" as="sourcePoint" />
            <mxPoint x="500" y="520" as="targetPoint" />
          </mxGeometry>
        </mxCell>
        <mxCell id="mqLugZ6fHD6W08TqDkBv-46" value="&amp;lt;&amp;lt;include&amp;gt;&amp;gt;" style="edgeStyle=none;html=1;endArrow=open;verticalAlign=bottom;dashed=1;labelBackgroundColor=none;rounded=0;exitX=1;exitY=0.5;exitDx=0;exitDy=0;entryX=0;entryY=0.5;entryDx=0;entryDy=0;" edge="1" parent="1" source="mqLugZ6fHD6W08TqDkBv-42" target="mqLugZ6fHD6W08TqDkBv-44">
          <mxGeometry width="160" relative="1" as="geometry">
            <mxPoint x="340" y="520" as="sourcePoint" />
            <mxPoint x="500" y="520" as="targetPoint" />
          </mxGeometry>
        </mxCell>
        <mxCell id="mqLugZ6fHD6W08TqDkBv-47" value="Create store" style="ellipse;whiteSpace=wrap;html=1;" vertex="1" parent="1">
          <mxGeometry x="350" y="700" width="135" height="40" as="geometry" />
        </mxCell>
        <mxCell id="mqLugZ6fHD6W08TqDkBv-48" value="&amp;lt;&amp;lt;include&amp;gt;&amp;gt;" style="edgeStyle=none;html=1;endArrow=open;verticalAlign=bottom;dashed=1;labelBackgroundColor=none;rounded=0;exitX=1;exitY=0.5;exitDx=0;exitDy=0;entryX=0;entryY=0.5;entryDx=0;entryDy=0;" edge="1" parent="1" source="mqLugZ6fHD6W08TqDkBv-42" target="mqLugZ6fHD6W08TqDkBv-47">
          <mxGeometry width="160" relative="1" as="geometry">
            <mxPoint x="340" y="520" as="sourcePoint" />
            <mxPoint x="500" y="520" as="targetPoint" />
          </mxGeometry>
        </mxCell>
        <mxCell id="mqLugZ6fHD6W08TqDkBv-49" value="" style="edgeStyle=none;html=1;endArrow=none;verticalAlign=bottom;rounded=0;exitX=0.5;exitY=0.5;exitDx=0;exitDy=0;exitPerimeter=0;entryX=0;entryY=0.5;entryDx=0;entryDy=0;" edge="1" parent="1" source="mqLugZ6fHD6W08TqDkBv-2" target="mqLugZ6fHD6W08TqDkBv-42">
          <mxGeometry width="160" relative="1" as="geometry">
            <mxPoint x="340" y="430" as="sourcePoint" />
            <mxPoint x="500" y="430" as="targetPoint" />
          </mxGeometry>
        </mxCell>
        <mxCell id="mqLugZ6fHD6W08TqDkBv-50" value="Manage customer" style="ellipse;whiteSpace=wrap;html=1;" vertex="1" parent="1">
          <mxGeometry x="165" y="780" width="140" height="70" as="geometry" />
        </mxCell>
        <mxCell id="mqLugZ6fHD6W08TqDkBv-51" value="View customer" style="ellipse;whiteSpace=wrap;html=1;" vertex="1" parent="1">
          <mxGeometry x="360" y="760" width="110" height="40" as="geometry" />
        </mxCell>
        <mxCell id="mqLugZ6fHD6W08TqDkBv-52" value="Delete customer" style="ellipse;whiteSpace=wrap;html=1;" vertex="1" parent="1">
          <mxGeometry x="355" y="820" width="130" height="40" as="geometry" />
        </mxCell>
        <mxCell id="mqLugZ6fHD6W08TqDkBv-53" value="&amp;lt;&amp;lt;include&amp;gt;&amp;gt;" style="edgeStyle=none;html=1;endArrow=open;verticalAlign=bottom;dashed=1;labelBackgroundColor=none;rounded=0;exitX=1;exitY=0.5;exitDx=0;exitDy=0;entryX=0;entryY=0.5;entryDx=0;entryDy=0;" edge="1" parent="1" source="mqLugZ6fHD6W08TqDkBv-50" target="mqLugZ6fHD6W08TqDkBv-51">
          <mxGeometry width="160" relative="1" as="geometry">
            <mxPoint x="340" y="820" as="sourcePoint" />
            <mxPoint x="500" y="820" as="targetPoint" />
          </mxGeometry>
        </mxCell>
        <mxCell id="mqLugZ6fHD6W08TqDkBv-54" value="&amp;lt;&amp;lt;include&amp;gt;&amp;gt;" style="edgeStyle=none;html=1;endArrow=open;verticalAlign=bottom;dashed=1;labelBackgroundColor=none;rounded=0;exitX=1;exitY=0.5;exitDx=0;exitDy=0;entryX=0;entryY=0.5;entryDx=0;entryDy=0;" edge="1" parent="1" source="mqLugZ6fHD6W08TqDkBv-50" target="mqLugZ6fHD6W08TqDkBv-52">
          <mxGeometry width="160" relative="1" as="geometry">
            <mxPoint x="340" y="820" as="sourcePoint" />
            <mxPoint x="500" y="820" as="targetPoint" />
          </mxGeometry>
        </mxCell>
        <mxCell id="mqLugZ6fHD6W08TqDkBv-55" value="Technical support" style="ellipse;whiteSpace=wrap;html=1;" vertex="1" parent="1">
          <mxGeometry x="165" y="900" width="140" height="70" as="geometry" />
        </mxCell>
        <mxCell id="mqLugZ6fHD6W08TqDkBv-56" value="" style="edgeStyle=none;html=1;endArrow=none;verticalAlign=bottom;rounded=0;exitX=0.5;exitY=0.5;exitDx=0;exitDy=0;exitPerimeter=0;entryX=0;entryY=0.5;entryDx=0;entryDy=0;" edge="1" parent="1" source="mqLugZ6fHD6W08TqDkBv-2" target="mqLugZ6fHD6W08TqDkBv-50">
          <mxGeometry width="160" relative="1" as="geometry">
            <mxPoint x="340" y="660" as="sourcePoint" />
            <mxPoint x="500" y="660" as="targetPoint" />
          </mxGeometry>
        </mxCell>
        <mxCell id="mqLugZ6fHD6W08TqDkBv-57" value="" style="edgeStyle=none;html=1;endArrow=none;verticalAlign=bottom;rounded=0;entryX=0;entryY=0.5;entryDx=0;entryDy=0;exitX=0.5;exitY=0.5;exitDx=0;exitDy=0;exitPerimeter=0;" edge="1" parent="1" source="mqLugZ6fHD6W08TqDkBv-2" target="mqLugZ6fHD6W08TqDkBv-55">
          <mxGeometry width="160" relative="1" as="geometry">
            <mxPoint x="90" y="820" as="sourcePoint" />
            <mxPoint x="500" y="780" as="targetPoint" />
          </mxGeometry>
        </mxCell>
        <mxCell id="mqLugZ6fHD6W08TqDkBv-58" value="View ticket" style="ellipse;whiteSpace=wrap;html=1;" vertex="1" parent="1">
          <mxGeometry x="365" y="880" width="110" height="50" as="geometry" />
        </mxCell>
        <mxCell id="mqLugZ6fHD6W08TqDkBv-59" value="&amp;lt;&amp;lt;include&amp;gt;&amp;gt;" style="edgeStyle=none;html=1;endArrow=open;verticalAlign=bottom;dashed=1;labelBackgroundColor=none;rounded=0;exitX=1;exitY=0.5;exitDx=0;exitDy=0;entryX=0;entryY=0.5;entryDx=0;entryDy=0;" edge="1" parent="1" source="mqLugZ6fHD6W08TqDkBv-55" target="mqLugZ6fHD6W08TqDkBv-58">
          <mxGeometry width="160" relative="1" as="geometry">
            <mxPoint x="380" y="770" as="sourcePoint" />
            <mxPoint x="540" y="770" as="targetPoint" />
          </mxGeometry>
        </mxCell>
        <mxCell id="mqLugZ6fHD6W08TqDkBv-60" value="Update ticket" style="ellipse;whiteSpace=wrap;html=1;" vertex="1" parent="1">
          <mxGeometry x="360" y="950" width="120" height="50" as="geometry" />
        </mxCell>
        <mxCell id="mqLugZ6fHD6W08TqDkBv-61" value="&amp;lt;&amp;lt;include&amp;gt;&amp;gt;" style="edgeStyle=none;html=1;endArrow=open;verticalAlign=bottom;dashed=1;labelBackgroundColor=none;rounded=0;exitX=1;exitY=0.5;exitDx=0;exitDy=0;entryX=0;entryY=0.5;entryDx=0;entryDy=0;" edge="1" parent="1" source="mqLugZ6fHD6W08TqDkBv-55" target="mqLugZ6fHD6W08TqDkBv-60">
          <mxGeometry width="160" relative="1" as="geometry">
            <mxPoint x="380" y="770" as="sourcePoint" />
            <mxPoint x="540" y="770" as="targetPoint" />
          </mxGeometry>
        </mxCell>
        <mxCell id="mqLugZ6fHD6W08TqDkBv-62" value="View customer" style="ellipse;whiteSpace=wrap;html=1;" vertex="1" parent="1">
          <mxGeometry x="720" y="-200" width="116.25" height="50" as="geometry" />
        </mxCell>
        <mxCell id="mqLugZ6fHD6W08TqDkBv-63" value="" style="edgeStyle=none;html=1;endArrow=none;verticalAlign=bottom;rounded=0;exitX=1;exitY=0.5;exitDx=0;exitDy=0;entryX=0.5;entryY=0.5;entryDx=0;entryDy=0;entryPerimeter=0;" edge="1" parent="1" source="mqLugZ6fHD6W08TqDkBv-62" target="mqLugZ6fHD6W08TqDkBv-7">
          <mxGeometry width="160" relative="1" as="geometry">
            <mxPoint x="860" y="-85" as="sourcePoint" />
            <mxPoint x="550" y="90" as="targetPoint" />
          </mxGeometry>
        </mxCell>
        <mxCell id="mqLugZ6fHD6W08TqDkBv-65" value="View order" style="ellipse;whiteSpace=wrap;html=1;" vertex="1" parent="1">
          <mxGeometry x="720" y="-130" width="116.25" height="50" as="geometry" />
        </mxCell>
        <mxCell id="mqLugZ6fHD6W08TqDkBv-68" value="Adjust order&lt;br&gt;(status, price, shipping fee,...)" style="ellipse;whiteSpace=wrap;html=1;" vertex="1" parent="1">
          <mxGeometry x="650" y="5" width="197.19" height="70" as="geometry" />
        </mxCell>
        <mxCell id="mqLugZ6fHD6W08TqDkBv-76" value="View feedback" style="ellipse;whiteSpace=wrap;html=1;" vertex="1" parent="1">
          <mxGeometry x="721.88" y="-60" width="126.25" height="50" as="geometry" />
        </mxCell>
        <mxCell id="mqLugZ6fHD6W08TqDkBv-78" value="" style="edgeStyle=none;html=1;endArrow=none;verticalAlign=bottom;rounded=0;exitX=1;exitY=0.5;exitDx=0;exitDy=0;entryX=0.5;entryY=0.5;entryDx=0;entryDy=0;entryPerimeter=0;" edge="1" parent="1" source="mqLugZ6fHD6W08TqDkBv-65" target="mqLugZ6fHD6W08TqDkBv-7">
          <mxGeometry width="160" relative="1" as="geometry">
            <mxPoint x="390" y="150" as="sourcePoint" />
            <mxPoint x="550" y="150" as="targetPoint" />
          </mxGeometry>
        </mxCell>
        <mxCell id="mqLugZ6fHD6W08TqDkBv-79" value="" style="edgeStyle=none;html=1;endArrow=none;verticalAlign=bottom;rounded=0;exitX=1;exitY=0.5;exitDx=0;exitDy=0;entryX=0.5;entryY=0.5;entryDx=0;entryDy=0;entryPerimeter=0;" edge="1" parent="1" source="mqLugZ6fHD6W08TqDkBv-68" target="mqLugZ6fHD6W08TqDkBv-7">
          <mxGeometry width="160" relative="1" as="geometry">
            <mxPoint x="470" y="150" as="sourcePoint" />
            <mxPoint x="630" y="150" as="targetPoint" />
          </mxGeometry>
        </mxCell>
        <mxCell id="mqLugZ6fHD6W08TqDkBv-80" value="" style="edgeStyle=none;html=1;endArrow=none;verticalAlign=bottom;rounded=0;exitX=1;exitY=0.5;exitDx=0;exitDy=0;entryX=0.5;entryY=0.5;entryDx=0;entryDy=0;entryPerimeter=0;" edge="1" parent="1" source="mqLugZ6fHD6W08TqDkBv-76" target="mqLugZ6fHD6W08TqDkBv-7">
          <mxGeometry width="160" relative="1" as="geometry">
            <mxPoint x="470" y="150" as="sourcePoint" />
            <mxPoint x="630" y="150" as="targetPoint" />
          </mxGeometry>
        </mxCell>
        <mxCell id="mqLugZ6fHD6W08TqDkBv-81" value="Forgot password" style="ellipse;whiteSpace=wrap;html=1;" vertex="1" parent="1">
          <mxGeometry x="936.87" y="332.5" width="126.25" height="50" as="geometry" />
        </mxCell>
        <mxCell id="mqLugZ6fHD6W08TqDkBv-82" value="" style="edgeStyle=none;html=1;endArrow=none;verticalAlign=bottom;rounded=0;exitX=0.5;exitY=0.5;exitDx=0;exitDy=0;exitPerimeter=0;entryX=1;entryY=0.5;entryDx=0;entryDy=0;" edge="1" parent="1" source="mqLugZ6fHD6W08TqDkBv-6" target="mqLugZ6fHD6W08TqDkBv-81">
          <mxGeometry width="160" relative="1" as="geometry">
            <mxPoint x="470" y="320" as="sourcePoint" />
            <mxPoint x="630" y="320" as="targetPoint" />
          </mxGeometry>
        </mxCell>
        <mxCell id="mqLugZ6fHD6W08TqDkBv-83" value="Edit profile" style="ellipse;whiteSpace=wrap;html=1;" vertex="1" parent="1">
          <mxGeometry x="936.87" y="402.5" width="126.25" height="50" as="geometry" />
        </mxCell>
        <mxCell id="mqLugZ6fHD6W08TqDkBv-84" value="" style="edgeStyle=none;html=1;endArrow=none;verticalAlign=bottom;rounded=0;exitX=0.5;exitY=0.5;exitDx=0;exitDy=0;exitPerimeter=0;entryX=1;entryY=0.5;entryDx=0;entryDy=0;" edge="1" parent="1" source="mqLugZ6fHD6W08TqDkBv-6" target="mqLugZ6fHD6W08TqDkBv-83">
          <mxGeometry width="160" relative="1" as="geometry">
            <mxPoint x="1020" y="240" as="sourcePoint" />
            <mxPoint x="630" y="320" as="targetPoint" />
          </mxGeometry>
        </mxCell>
        <mxCell id="mqLugZ6fHD6W08TqDkBv-85" value="Manage order" style="ellipse;whiteSpace=wrap;html=1;" vertex="1" parent="1">
          <mxGeometry x="930" y="475" width="140" height="55" as="geometry" />
        </mxCell>
        <mxCell id="mqLugZ6fHD6W08TqDkBv-86" value="" style="edgeStyle=none;html=1;endArrow=none;verticalAlign=bottom;rounded=0;exitX=0.5;exitY=0.5;exitDx=0;exitDy=0;exitPerimeter=0;entryX=1;entryY=0.5;entryDx=0;entryDy=0;" edge="1" parent="1" source="mqLugZ6fHD6W08TqDkBv-6" target="mqLugZ6fHD6W08TqDkBv-85">
          <mxGeometry width="160" relative="1" as="geometry">
            <mxPoint x="470" y="320" as="sourcePoint" />
            <mxPoint x="630" y="320" as="targetPoint" />
          </mxGeometry>
        </mxCell>
        <mxCell id="mqLugZ6fHD6W08TqDkBv-87" value="View order" style="ellipse;whiteSpace=wrap;html=1;" vertex="1" parent="1">
          <mxGeometry x="740" y="410" width="120" height="45" as="geometry" />
        </mxCell>
        <mxCell id="mqLugZ6fHD6W08TqDkBv-88" value="Create order" style="ellipse;whiteSpace=wrap;html=1;" vertex="1" parent="1">
          <mxGeometry x="720" y="485" width="120" height="45" as="geometry" />
        </mxCell>
        <mxCell id="mqLugZ6fHD6W08TqDkBv-89" value="&amp;lt;&amp;lt;include&amp;gt;&amp;gt;" style="edgeStyle=none;html=1;endArrow=open;verticalAlign=bottom;dashed=1;labelBackgroundColor=none;rounded=0;exitX=0;exitY=0.5;exitDx=0;exitDy=0;entryX=1;entryY=0.5;entryDx=0;entryDy=0;" edge="1" parent="1" source="mqLugZ6fHD6W08TqDkBv-85" target="mqLugZ6fHD6W08TqDkBv-88">
          <mxGeometry width="160" relative="1" as="geometry">
            <mxPoint x="520" y="320" as="sourcePoint" />
            <mxPoint x="680" y="320" as="targetPoint" />
          </mxGeometry>
        </mxCell>
        <mxCell id="mqLugZ6fHD6W08TqDkBv-90" value="&amp;lt;&amp;lt;include&amp;gt;&amp;gt;" style="edgeStyle=none;html=1;endArrow=open;verticalAlign=bottom;dashed=1;labelBackgroundColor=none;rounded=0;exitX=0;exitY=0.5;exitDx=0;exitDy=0;entryX=1;entryY=0.5;entryDx=0;entryDy=0;" edge="1" parent="1" source="mqLugZ6fHD6W08TqDkBv-85" target="mqLugZ6fHD6W08TqDkBv-87">
          <mxGeometry width="160" relative="1" as="geometry">
            <mxPoint x="520" y="320" as="sourcePoint" />
            <mxPoint x="680" y="320" as="targetPoint" />
          </mxGeometry>
        </mxCell>
        <mxCell id="mqLugZ6fHD6W08TqDkBv-91" value="Select product" style="ellipse;whiteSpace=wrap;html=1;" vertex="1" parent="1">
          <mxGeometry x="550" y="525" width="120" height="50" as="geometry" />
        </mxCell>
        <mxCell id="mqLugZ6fHD6W08TqDkBv-92" value="&amp;lt;&amp;lt;include&amp;gt;&amp;gt;" style="edgeStyle=none;html=1;endArrow=open;verticalAlign=bottom;dashed=1;labelBackgroundColor=none;rounded=0;exitX=0.5;exitY=1;exitDx=0;exitDy=0;entryX=1;entryY=0;entryDx=0;entryDy=0;" edge="1" parent="1" source="mqLugZ6fHD6W08TqDkBv-88" target="mqLugZ6fHD6W08TqDkBv-91">
          <mxGeometry width="160" relative="1" as="geometry">
            <mxPoint x="520" y="460" as="sourcePoint" />
            <mxPoint x="680" y="460" as="targetPoint" />
          </mxGeometry>
        </mxCell>
        <mxCell id="mqLugZ6fHD6W08TqDkBv-94" value="Select payment method" style="ellipse;whiteSpace=wrap;html=1;" vertex="1" parent="1">
          <mxGeometry x="650" y="580" width="140" height="50" as="geometry" />
        </mxCell>
        <mxCell id="mqLugZ6fHD6W08TqDkBv-95" value="&amp;lt;&amp;lt;include&amp;gt;&amp;gt;" style="edgeStyle=none;html=1;endArrow=open;verticalAlign=bottom;dashed=1;labelBackgroundColor=none;rounded=0;exitX=0.5;exitY=1;exitDx=0;exitDy=0;entryX=0.5;entryY=0;entryDx=0;entryDy=0;" edge="1" parent="1" source="mqLugZ6fHD6W08TqDkBv-88" target="mqLugZ6fHD6W08TqDkBv-94">
          <mxGeometry width="160" relative="1" as="geometry">
            <mxPoint x="520" y="460" as="sourcePoint" />
            <mxPoint x="680" y="460" as="targetPoint" />
          </mxGeometry>
        </mxCell>
        <mxCell id="mqLugZ6fHD6W08TqDkBv-97" value="Feedback order" style="ellipse;whiteSpace=wrap;html=1;" vertex="1" parent="1">
          <mxGeometry x="810" y="560" width="140" height="70" as="geometry" />
        </mxCell>
        <mxCell id="mqLugZ6fHD6W08TqDkBv-98" value="&amp;lt;&amp;lt;include&amp;gt;&amp;gt;" style="edgeStyle=none;html=1;endArrow=open;verticalAlign=bottom;dashed=1;labelBackgroundColor=none;rounded=0;exitX=0;exitY=0.5;exitDx=0;exitDy=0;entryX=0.5;entryY=0;entryDx=0;entryDy=0;" edge="1" parent="1" source="mqLugZ6fHD6W08TqDkBv-85" target="mqLugZ6fHD6W08TqDkBv-97">
          <mxGeometry width="160" relative="1" as="geometry">
            <mxPoint x="520" y="500" as="sourcePoint" />
            <mxPoint x="680" y="500" as="targetPoint" />
          </mxGeometry>
        </mxCell>
        <mxCell id="mqLugZ6fHD6W08TqDkBv-99" value="Create technical support ticket" style="ellipse;whiteSpace=wrap;html=1;" vertex="1" parent="1">
          <mxGeometry x="870" y="670" width="200" height="70" as="geometry" />
        </mxCell>
        <mxCell id="mqLugZ6fHD6W08TqDkBv-100" value="" style="edgeStyle=none;html=1;endArrow=none;verticalAlign=bottom;rounded=0;exitX=0.5;exitY=0.5;exitDx=0;exitDy=0;exitPerimeter=0;entryX=1;entryY=0;entryDx=0;entryDy=0;" edge="1" parent="1" source="mqLugZ6fHD6W08TqDkBv-6" target="mqLugZ6fHD6W08TqDkBv-99">
          <mxGeometry width="160" relative="1" as="geometry">
            <mxPoint x="740" y="550" as="sourcePoint" />
            <mxPoint x="900" y="550" as="targetPoint" />
          </mxGeometry>
        </mxCell>
      </root>
    </mxGraphModel>
  </diagram>
</mxfile>
